<svg id="Layer_2" data-name="Layer 2" xmlns="http://www.w3.org/2000/svg" xmlns:xlink="http://www.w3.org/1999/xlink" viewBox="0 0 64 64"><defs><style>.cls-1{fill:url(#linear-gradient);}.cls-2{fill:url(#linear-gradient-2);}</style><linearGradient id="linear-gradient" x1="4.58" y1="32" x2="27.2" y2="32" gradientUnits="userSpaceOnUse"><stop offset="0" stop-color="#ffffff" id="id_103"></stop><stop offset="0.38" stop-color="#ffffff" id="id_104"></stop><stop offset="0.79" stop-color="#ffffff" id="id_105"></stop><stop offset="1" stop-color="#ffffff" id="id_106"></stop></linearGradient><linearGradient id="linear-gradient-2" x1="13.91" x2="59.42" xlink:href="#linear-gradient"></linearGradient></defs><path class="cls-1" d="M26.7,55.77H9.31V8.23H26.7a.5.5,0,0,0,.5-.5V4a.5.5,0,0,0-.5-.5H5.08a.5.5,0,0,0-.5.5V60a.5.5,0,0,0,.5.5H26.7a.5.5,0,0,0,.5-.5V56.27A.5.5,0,0,0,26.7,55.77Zm-.5,3.73H5.58V4.5H26.2V7.23H8.81a.51.51,0,0,0-.5.5V56.27a.51.51,0,0,0,.5.5H26.2Z" id="id_101"></path><path class="cls-2" d="M58.92,29.63h-36L34.6,18.1a.5.5,0,0,0,0-.71L32,14.72a.47.47,0,0,0-.35-.15.6.6,0,0,0-.36.14L14.06,31.64a.51.51,0,0,0,0,.72L31.28,49.29a.5.5,0,0,0,.35.14.64.64,0,0,0,.36-.15l2.62-2.67a.5.5,0,0,0,0-.71L22.87,34.37H58.92a.5.5,0,0,0,.5-.5V30.13A.5.5,0,0,0,58.92,29.63Zm-.5,3.74H21.64a.5.5,0,0,0-.46.31.49.49,0,0,0,.11.54L33.55,46.27l-1.92,1.95L15.12,32,31.63,15.78l1.92,2L21.29,29.78a.49.49,0,0,0-.11.54.5.5,0,0,0,.46.31H58.42Z" id="id_102"></path></svg>